<svg width="479.3" height="102.6" viewBox="0 0 479.3 102.6" xmlns="http://www.w3.org/2000/svg"><g id="svgGroup" stroke-linecap="round" fill-rule="evenodd" font-size="9pt" stroke="#000000" stroke-width="0.25mm" fill="none" style="stroke:#000000;stroke-width:0.25mm;fill:none"><path d="M 33.5 55.2 C 33.5 55.2 33.7 29.8 34.3 0.4 C 34.3 0.4 41.4 0.5 49.5 0.8 C 49.5 0.8 47.6 40.3 45.8 82.7 C 45.8 82.7 40 82.9 32.6 83.1 C 32.6 83.1 22.4 58.4 15 39.2 C 15 39.2 16.2 59.8 16.9 82.9 C 16.9 82.9 9.4 82.7 0.9 82.6 C 0.9 82.6 0.3 46.2 0 0.7 C 0 0.7 5.3 0.7 13.9 0.4 C 13.9 0.4 24.1 30.9 33.5 55.2 Z M 154.6 82.6 C 154.6 82.6 155.3 61.2 155.5 38.3 C 155.5 38.3 151.7 38.6 146.7 39 C 146.7 39 146.1 55.9 145.3 78.1 C 145.3 78.1 140.1 78 132 78.1 C 132 78.1 132 60.9 131.9 39.3 C 131.9 39.3 127.7 39.1 122.3 38.9 C 122.4 60.3 122.5 82 122.5 82.8 C 122.5 82.8 119.1 82.7 109.9 82.8 C 109.9 82.8 108.7 58.4 108 38 C 108 38 113.7 30.3 121.1 22.6 C 121.1 22.6 126.5 22.9 131.9 23.1 C 134.4 26.9 137 31.3 137 31.3 C 137 31.3 140.7 27.3 145.1 23.2 C 145.1 23.2 150 23.1 155.9 22.9 C 155.9 22.9 161.5 28.5 169.4 37.1 C 168.4 58.6 168 82.8 168 82.8 C 168 82.8 162.6 82.7 154.6 82.6 Z M 444.7 82.9 C 436.4 82.6 428.7 82.5 428.7 82.5 C 423 70 418.2 57 418.2 57 C 417.8 71.6 417.8 82.6 417.8 82.6 C 410.6 82.6 405.4 82.7 405.4 82.7 C 405.4 82.7 405.2 46.4 403.8 0.6 C 412.2 0.6 420.1 0.7 420.1 0.7 C 419.2 24.6 418.7 42.3 418.7 42.3 C 418.7 42.3 424.3 31.7 428.5 22.1 C 428.5 22.1 435.5 24.3 442.3 27.6 C 435.4 36 425.3 49.5 425.3 49.5 C 425.3 49.5 430.5 60.6 435.6 69.9 C 440.5 69.8 445.6 69.6 445.6 69.6 C 445.1 76.9 444.7 82.9 444.7 82.9 Z M 90.5 77.3 C 90.5 77.3 87.3 80 83.9 83.2 C 83.9 83.2 77.9 83 70.8 83.1 C 70.8 83.1 65.2 78 58.3 71.2 C 57.1 50.3 56.5 23 56.5 23 C 56.5 23 63.8 22.9 72.3 23.2 C 72.3 23.2 71.6 49.5 71.5 68.6 C 71.5 68.6 76.8 68.6 84.5 68.5 C 84.5 68.5 84.7 45.9 84.5 25.3 C 84.5 25.3 92.4 25.4 100.3 25.8 C 99.2 47.6 97.1 71.1 97.1 71.1 C 99.8 72.1 103.7 73.1 103.7 73.1 C 102 78.8 100.7 83.4 100.7 83.4 C 97.1 82.6 94.6 81.9 94.6 81.9 C 92.7 79.3 90.5 77.3 90.5 77.3 Z M 314.7 77.3 C 314.7 77.3 311.5 80 308.1 83.2 C 308.1 83.2 302.1 83 295 83.1 C 295 83.1 289.4 78 282.5 71.2 C 281.3 50.3 280.7 23 280.7 23 C 280.7 23 288 22.9 296.5 23.2 C 296.5 23.2 295.8 49.5 295.7 68.6 C 295.7 68.6 301 68.6 308.7 68.5 C 308.7 68.5 308.9 45.9 308.7 25.3 C 308.7 25.3 316.6 25.4 324.5 25.8 C 323.4 47.6 321.3 71.1 321.3 71.1 C 324 72.1 327.9 73.1 327.9 73.1 C 326.2 78.8 324.9 83.4 324.9 83.4 C 321.3 82.6 318.8 81.9 318.8 81.9 C 316.9 79.3 314.7 77.3 314.7 77.3 Z M 256.6 82.6 C 257 84.6 257.7 87.1 258.5 90.3 C 258.5 90.3 262.9 90.3 268.1 90 C 268.1 90 268.6 96.9 268.1 102.6 C 268.1 102.6 258.6 102.3 250.3 101.9 C 250.3 101.9 248.6 96 245.7 82.4 C 243.8 82.3 241.7 82.3 239.5 82.2 C 239.5 82.2 232.4 75.3 225.9 68.5 C 225.9 68.5 225.6 45.6 224.6 17.7 C 224.6 17.7 230.8 9.4 237.7 0.8 C 237.7 0.8 247.8 1.1 260.1 0.8 C 260.1 0.8 266.8 9.3 273.3 18.9 C 273.3 18.9 271.4 45.5 270.9 69.4 C 270.9 69.4 265 75.9 258.7 82.7 C 258.7 82.7 258 82.7 256.6 82.6 Z M 397.5 35.8 C 397.5 35.8 390.8 29 384.5 22.9 C 384.5 22.9 376.9 22.4 368.4 22.1 C 368.4 22.1 362.2 29.3 355.4 35.8 C 355.4 35.8 356.3 55 356.8 72.5 C 356.8 72.5 361.5 77.2 369.5 84.4 C 369.5 84.4 377.9 84.1 385.7 83.6 C 385.7 83.6 390.6 78.6 396.6 71.8 C 396.6 71.8 396.7 67.8 396.6 62.9 C 396.6 62.9 389.3 62.7 382.6 62.7 C 382.6 62.7 382.7 65.7 382.7 71.8 C 382.7 71.8 377.3 71.6 370.7 71.3 C 370.7 71.3 370.5 53.3 369.9 36.5 C 369.9 36.5 376.7 36.7 384.1 37.2 C 384.1 37.2 384.2 41.5 384.3 45.9 C 384.3 45.9 390 46.3 397.7 46.6 C 397.7 46.6 397.6 40.1 397.5 35.8 Z M 190.8 83.4 C 190.8 83.4 184.4 79 178 73 C 178 73 176.9 55.5 176.2 34.7 C 176.2 34.7 182.1 28.3 187.8 23 C 187.8 23 194.8 22.5 204.1 21.9 C 204.1 21.9 211.2 28 217.2 34.9 C 215.4 53.8 215.5 74.2 215 73.7 C 215 73.7 208.7 78.5 202.4 83.4 L 190.8 83.4 Z M 459.8 63.8 C 458.4 36.2 457.4 1.1 457.4 1.1 C 468.4 1.1 479.3 1.4 479.3 1.4 C 477 33.7 475.1 63.8 475.1 63.8 L 459.8 63.8 Z M 333.7 82.4 C 333.7 54.3 333.4 23.1 333.4 23.1 C 339.7 23.3 348 23.3 348 23.3 C 346.9 52.2 346.2 82.4 346.2 82.4 L 333.7 82.4 Z M 239.3 18.5 C 239.3 18.5 239.8 47.3 240 68.5 C 240 68.5 246.6 68.6 256.8 68.8 C 256.8 68.8 257.9 41.9 257.8 18.9 C 257.8 18.9 248 18.3 239.3 18.5 Z M 190.2 35.4 C 190.2 35.4 190.6 53.5 191 72.4 C 191 72.4 197 72.9 202.5 73 C 202.5 73 203 55.7 203.6 35.3 C 203.6 35.3 195.6 35.2 190.2 35.4 Z M 348.5 15.3 C 348.5 15.3 341 15.2 332.8 15.1 C 332.8 15.1 332.5 6.8 332.3 0 C 332.3 0 340.6 0 349.1 0.2 C 349.1 0.2 348.8 6.8 348.5 15.3 Z M 460.5 82.7 C 460.5 82.7 460.2 76.4 459.8 70.9 C 459.8 70.9 467 70.7 474.9 70.9 C 474.9 70.9 474.8 76.6 474.6 82.7 L 460.5 82.7 Z" vector-effect="non-scaling-stroke"/></g></svg>